<svg width="136" height="28" viewBox="0 0 136 28" fill="none" xmlns="http://www.w3.org/2000/svg">
<rect width="8" height="4" fill="#00AFB6" style="fill:#00AFB6;fill:color(display-p3 0.0000 0.6863 0.7137);fill-opacity:1;"/>
<rect x="36" width="8" height="4" fill="#00AFB6" style="fill:#00AFB6;fill:color(display-p3 0.0000 0.6863 0.7137);fill-opacity:1;"/>
<rect x="36" y="4" width="8" height="4" fill="#84D9DD" style="fill:#84D9DD;fill:color(display-p3 0.5176 0.8510 0.8667);fill-opacity:1;"/>
<rect x="64" width="8" height="4" fill="#00AFB6" style="fill:#00AFB6;fill:color(display-p3 0.0000 0.6863 0.7137);fill-opacity:1;"/>
<rect x="120" width="8" height="4" fill="#00AFB6" style="fill:#00AFB6;fill:color(display-p3 0.0000 0.6863 0.7137);fill-opacity:1;"/>
<rect x="8" y="16" width="8" height="4" fill="#00787D" style="fill:#00787D;fill:color(display-p3 0.0000 0.4706 0.4902);fill-opacity:1;"/>
<rect x="36" y="16" width="8" height="4" fill="#00AFB6" style="fill:#00AFB6;fill:color(display-p3 0.0000 0.6863 0.7137);fill-opacity:1;"/>
<rect x="64" y="16" width="8" height="4" fill="#E6F6F7" style="fill:#E6F6F7;fill:color(display-p3 0.9020 0.9647 0.9686);fill-opacity:1;"/>
<rect x="92" y="16" width="8" height="4" fill="#E6F6F7" style="fill:#E6F6F7;fill:color(display-p3 0.9020 0.9647 0.9686);fill-opacity:1;"/>
<rect x="120" y="16" width="8" height="4" fill="#00C3CB" style="fill:#00C3CB;fill:color(display-p3 0.0000 0.7647 0.7961);fill-opacity:1;"/>
<rect x="72" width="8" height="4" fill="#009BA1" style="fill:#009BA1;fill:color(display-p3 0.0000 0.6078 0.6314);fill-opacity:1;"/>
<rect x="128" width="8" height="4" fill="#00AFB6" style="fill:#00AFB6;fill:color(display-p3 0.0000 0.6863 0.7137);fill-opacity:1;"/>
<rect x="128" y="8" width="8" height="4" fill="#00AFB6" style="fill:#00AFB6;fill:color(display-p3 0.0000 0.6863 0.7137);fill-opacity:1;"/>
<rect x="16" y="16" width="8" height="4" fill="#00AFB6" style="fill:#00AFB6;fill:color(display-p3 0.0000 0.6863 0.7137);fill-opacity:1;"/>
<rect x="128" y="16" width="8" height="4" fill="#00AFB6" style="fill:#00AFB6;fill:color(display-p3 0.0000 0.6863 0.7137);fill-opacity:1;"/>
<rect y="4" width="8" height="4" fill="#00AFB6" style="fill:#00AFB6;fill:color(display-p3 0.0000 0.6863 0.7137);fill-opacity:1;"/>
<rect x="28" y="4" width="8" height="4" fill="#00AFB6" style="fill:#00AFB6;fill:color(display-p3 0.0000 0.6863 0.7137);fill-opacity:1;"/>
<rect x="84" y="4" width="8" height="4" fill="#00787D" style="fill:#00787D;fill:color(display-p3 0.0000 0.4706 0.4902);fill-opacity:1;"/>
<rect x="112" y="4" width="8" height="4" fill="#00AFB6" style="fill:#00AFB6;fill:color(display-p3 0.0000 0.6863 0.7137);fill-opacity:1;"/>
<rect y="20" width="8" height="4" fill="#009BA1" style="fill:#009BA1;fill:color(display-p3 0.0000 0.6078 0.6314);fill-opacity:1;"/>
<rect x="28" y="20" width="8" height="4" fill="#00AFB6" style="fill:#00AFB6;fill:color(display-p3 0.0000 0.6863 0.7137);fill-opacity:1;"/>
<rect x="56" y="20" width="8" height="4" fill="#00AFB6" style="fill:#00AFB6;fill:color(display-p3 0.0000 0.6863 0.7137);fill-opacity:1;"/>
<rect x="84" y="20" width="8" height="4" fill="#00AFB6" style="fill:#00AFB6;fill:color(display-p3 0.0000 0.6863 0.7137);fill-opacity:1;"/>
<rect x="8" y="4" width="8" height="4" fill="#00C3CB" style="fill:#00C3CB;fill:color(display-p3 0.0000 0.7647 0.7961);fill-opacity:1;"/>
<rect x="44" y="4" width="8" height="4" fill="#00787D" style="fill:#00787D;fill:color(display-p3 0.0000 0.4706 0.4902);fill-opacity:1;"/>
<rect x="44" y="20" width="8" height="4" fill="#00AFB6" style="fill:#00AFB6;fill:color(display-p3 0.0000 0.6863 0.7137);fill-opacity:1;"/>
<rect x="56" width="8" height="4" fill="#00787D" style="fill:#00787D;fill:color(display-p3 0.0000 0.4706 0.4902);fill-opacity:1;"/>
<rect x="84" width="8" height="4" fill="#00AFB6" style="fill:#00AFB6;fill:color(display-p3 0.0000 0.6863 0.7137);fill-opacity:1;"/>
<rect x="112" width="8" height="4" fill="#009BA1" style="fill:#009BA1;fill:color(display-p3 0.0000 0.6078 0.6314);fill-opacity:1;"/>
<rect y="16" width="8" height="4" fill="#00C3CB" style="fill:#00C3CB;fill:color(display-p3 0.0000 0.7647 0.7961);fill-opacity:1;"/>
<rect x="56" y="16" width="8" height="4" fill="#009BA1" style="fill:#009BA1;fill:color(display-p3 0.0000 0.6078 0.6314);fill-opacity:1;"/>
<rect x="84" y="16" width="8" height="4" fill="#009BA1" style="fill:#009BA1;fill:color(display-p3 0.0000 0.6078 0.6314);fill-opacity:1;"/>
<rect x="64" y="4" width="8" height="4" fill="#00C3CB" style="fill:#00C3CB;fill:color(display-p3 0.0000 0.7647 0.7961);fill-opacity:1;"/>
<rect x="92" y="4" width="8" height="4" fill="#00AFB6" style="fill:#00AFB6;fill:color(display-p3 0.0000 0.6863 0.7137);fill-opacity:1;"/>
<rect x="120" y="4" width="8" height="4" fill="#00C3CB" style="fill:#00C3CB;fill:color(display-p3 0.0000 0.7647 0.7961);fill-opacity:1;"/>
<rect x="8" y="20" width="8" height="4" fill="#00AFB6" style="fill:#00AFB6;fill:color(display-p3 0.0000 0.6863 0.7137);fill-opacity:1;"/>
<rect x="36" y="20" width="8" height="4" fill="#00C3CB" style="fill:#00C3CB;fill:color(display-p3 0.0000 0.7647 0.7961);fill-opacity:1;"/>
<rect x="64" y="20" width="8" height="4" fill="#C3EBED" style="fill:#C3EBED;fill:color(display-p3 0.7647 0.9216 0.9294);fill-opacity:1;"/>
<rect x="92" y="20" width="8" height="4" fill="#C3EBED" style="fill:#C3EBED;fill:color(display-p3 0.7647 0.9216 0.9294);fill-opacity:1;"/>
<rect x="120" y="20" width="8" height="4" fill="#00AFB6" style="fill:#00AFB6;fill:color(display-p3 0.0000 0.6863 0.7137);fill-opacity:1;"/>
<rect x="112" y="8" width="8" height="4" fill="#00AFB6" style="fill:#00AFB6;fill:color(display-p3 0.0000 0.6863 0.7137);fill-opacity:1;"/>
<rect y="24" width="8" height="4" fill="#00AFB6" style="fill:#00AFB6;fill:color(display-p3 0.0000 0.6863 0.7137);fill-opacity:1;"/>
<rect x="28" y="24" width="8" height="4" fill="#00787D" style="fill:#00787D;fill:color(display-p3 0.0000 0.4706 0.4902);fill-opacity:1;"/>
<rect x="56" y="24" width="8" height="4" fill="#009BA1" style="fill:#009BA1;fill:color(display-p3 0.0000 0.6078 0.6314);fill-opacity:1;"/>
<rect x="84" y="24" width="8" height="4" fill="#00C3CB" style="fill:#00C3CB;fill:color(display-p3 0.0000 0.7647 0.7961);fill-opacity:1;"/>
<rect x="112" y="24" width="8" height="4" fill="#00AFB6" style="fill:#00AFB6;fill:color(display-p3 0.0000 0.6863 0.7137);fill-opacity:1;"/>
<rect x="8" y="8" width="8" height="4" fill="#009BA1" style="fill:#009BA1;fill:color(display-p3 0.0000 0.6078 0.6314);fill-opacity:1;"/>
<rect x="28" y="8" width="8" height="4" fill="#00AFB6" style="fill:#00AFB6;fill:color(display-p3 0.0000 0.6863 0.7137);fill-opacity:1;"/>
<rect x="64" y="8" width="8" height="4" fill="#00AFB6" style="fill:#00AFB6;fill:color(display-p3 0.0000 0.6863 0.7137);fill-opacity:1;"/>
<rect x="92" y="8" width="8" height="4" fill="#00AFB6" style="fill:#00AFB6;fill:color(display-p3 0.0000 0.6863 0.7137);fill-opacity:1;"/>
<rect x="64" y="24" width="8" height="4" fill="#00AFB6" style="fill:#00AFB6;fill:color(display-p3 0.0000 0.6863 0.7137);fill-opacity:1;"/>
<rect x="92" y="24" width="8" height="4" fill="#00787D" style="fill:#00787D;fill:color(display-p3 0.0000 0.4706 0.4902);fill-opacity:1;"/>
<rect x="120" y="24" width="8" height="4" fill="#00787D" style="fill:#00787D;fill:color(display-p3 0.0000 0.4706 0.4902);fill-opacity:1;"/>
<rect x="16" y="8" width="8" height="4" fill="#00AFB6" style="fill:#00AFB6;fill:color(display-p3 0.0000 0.6863 0.7137);fill-opacity:1;"/>
<rect x="44" y="8" width="8" height="4" fill="#00AFB6" style="fill:#00AFB6;fill:color(display-p3 0.0000 0.6863 0.7137);fill-opacity:1;"/>
<rect x="100" y="8" width="8" height="4" fill="#00AFB6" style="fill:#00AFB6;fill:color(display-p3 0.0000 0.6863 0.7137);fill-opacity:1;"/>
<rect x="44" y="24" width="8" height="4" fill="#00AFB6" style="fill:#00AFB6;fill:color(display-p3 0.0000 0.6863 0.7137);fill-opacity:1;"/>
<rect x="72" y="24" width="8" height="4" fill="#00AFB6" style="fill:#00AFB6;fill:color(display-p3 0.0000 0.6863 0.7137);fill-opacity:1;"/>
<rect x="100" y="24" width="8" height="4" fill="#00AFB6" style="fill:#00AFB6;fill:color(display-p3 0.0000 0.6863 0.7137);fill-opacity:1;"/>
</svg>
